<mxfile host="app.diagrams.net" modified="2023-12-01T13:47:25.135Z" agent="Mozilla/5.0 (X11; Linux x86_64) AppleWebKit/537.36 (KHTML, like Gecko) Chrome/119.0.0.0 Safari/537.36" etag="gVA7kZ9Noj8LYPdWbCca" version="22.1.5" type="github">
  <diagram name="Page-1" id="pmQrh8WyugEyjfTZw542">
    <mxGraphModel dx="1492" dy="831" grid="0" gridSize="10" guides="1" tooltips="1" connect="1" arrows="1" fold="1" page="1" pageScale="1" pageWidth="1169" pageHeight="827" math="0" shadow="0">
      <root>
        <mxCell id="0" />
        <mxCell id="1" parent="0" />
        <mxCell id="fqTTrqfbZ0EkqAj8iUrX-1" value="Github codespaces" style="rounded=1;whiteSpace=wrap;html=1;points=[[0,0,0,0,0],[0,0.25,0,0,0],[0,0.5,0,0,0],[0,0.75,0,0,0],[0,1,0,0,0],[0.25,0,0,0,0],[0.25,1,0,0,0],[0.5,0,0,0,0],[0.5,1,0,0,0],[0.75,0,0,0,0],[0.75,1,0,0,0],[1,0,0,0,0],[1,0.25,0,0,0],[1,0.5,0,0,0],[1,0.75,0,0,0],[1,1,0,0,0]];fillColor=#b1ddf0;strokeColor=#10739e;" parent="1" vertex="1">
          <mxGeometry x="255" y="141" width="120" height="60" as="geometry" />
        </mxCell>
        <mxCell id="fqTTrqfbZ0EkqAj8iUrX-2" value="Github actions" style="rounded=1;whiteSpace=wrap;html=1;fillColor=#bac8d3;strokeColor=#23445d;" parent="1" vertex="1">
          <mxGeometry x="549" y="312.5" width="140" height="57.5" as="geometry" />
        </mxCell>
        <mxCell id="fqTTrqfbZ0EkqAj8iUrX-3" value="Github web servers&lt;br&gt;(github pages)" style="rounded=1;whiteSpace=wrap;html=1;fillColor=#dae8fc;strokeColor=#6c8ebf;" parent="1" vertex="1">
          <mxGeometry x="743" y="414" width="127" height="59" as="geometry" />
        </mxCell>
        <mxCell id="fqTTrqfbZ0EkqAj8iUrX-6" value="DÃ©veloppeur" style="image;html=1;image=img/lib/clip_art/computers/Laptop_128x128.png" parent="1" vertex="1">
          <mxGeometry x="108" y="131" width="80" height="80" as="geometry" />
        </mxCell>
        <mxCell id="fqTTrqfbZ0EkqAj8iUrX-7" value="internaute" style="image;html=1;image=img/lib/clip_art/computers/Laptop_128x128.png" parent="1" vertex="1">
          <mxGeometry x="1083" y="403.5" width="80" height="80" as="geometry" />
        </mxCell>
        <mxCell id="fqTTrqfbZ0EkqAj8iUrX-10" value="Github repository&lt;br&gt;( icy-phoenix/icy-phoenix.github.io)" style="rounded=1;whiteSpace=wrap;html=1;fillColor=#b0e3e6;strokeColor=#0e8088;" parent="1" vertex="1">
          <mxGeometry x="216" y="310.5" width="214" height="60" as="geometry" />
        </mxCell>
        <mxCell id="fqTTrqfbZ0EkqAj8iUrX-11" value="" style="endArrow=classic;html=1;rounded=0;entryX=0;entryY=0.5;entryDx=0;entryDy=0;entryPerimeter=0;exitX=1;exitY=0.5;exitDx=0;exitDy=0;" parent="1" source="fqTTrqfbZ0EkqAj8iUrX-6" target="fqTTrqfbZ0EkqAj8iUrX-1" edge="1">
          <mxGeometry width="50" height="50" relative="1" as="geometry">
            <mxPoint x="224" y="560" as="sourcePoint" />
            <mxPoint x="274" y="510" as="targetPoint" />
          </mxGeometry>
        </mxCell>
        <mxCell id="fqTTrqfbZ0EkqAj8iUrX-12" value="" style="endArrow=classic;html=1;rounded=0;entryX=0.472;entryY=-0.039;entryDx=0;entryDy=0;exitX=0.5;exitY=1;exitDx=0;exitDy=0;exitPerimeter=0;entryPerimeter=0;" parent="1" source="fqTTrqfbZ0EkqAj8iUrX-1" target="fqTTrqfbZ0EkqAj8iUrX-10" edge="1">
          <mxGeometry width="50" height="50" relative="1" as="geometry">
            <mxPoint x="407" y="484" as="sourcePoint" />
            <mxPoint x="457" y="434" as="targetPoint" />
          </mxGeometry>
        </mxCell>
        <mxCell id="fqTTrqfbZ0EkqAj8iUrX-13" value="" style="endArrow=classic;html=1;rounded=0;entryX=1;entryY=0.5;entryDx=0;entryDy=0;exitX=0;exitY=0.5;exitDx=0;exitDy=0;" parent="1" source="fqTTrqfbZ0EkqAj8iUrX-2" target="fqTTrqfbZ0EkqAj8iUrX-10" edge="1">
          <mxGeometry width="50" height="50" relative="1" as="geometry">
            <mxPoint x="529" y="395" as="sourcePoint" />
            <mxPoint x="604" y="301" as="targetPoint" />
          </mxGeometry>
        </mxCell>
        <mxCell id="fqTTrqfbZ0EkqAj8iUrX-15" value="" style="endArrow=classic;html=1;rounded=0;entryX=0;entryY=0.5;entryDx=0;entryDy=0;exitX=1;exitY=0.5;exitDx=0;exitDy=0;" parent="1" source="fqTTrqfbZ0EkqAj8iUrX-2" target="fqTTrqfbZ0EkqAj8iUrX-3" edge="1">
          <mxGeometry width="50" height="50" relative="1" as="geometry">
            <mxPoint x="855" y="267" as="sourcePoint" />
            <mxPoint x="905" y="217" as="targetPoint" />
          </mxGeometry>
        </mxCell>
        <mxCell id="fqTTrqfbZ0EkqAj8iUrX-16" value="" style="endArrow=classic;html=1;rounded=0;entryX=1.008;entryY=0.39;entryDx=0;entryDy=0;entryPerimeter=0;exitX=0.004;exitY=0.41;exitDx=0;exitDy=0;exitPerimeter=0;" parent="1" source="fqTTrqfbZ0EkqAj8iUrX-7" target="fqTTrqfbZ0EkqAj8iUrX-3" edge="1">
          <mxGeometry width="50" height="50" relative="1" as="geometry">
            <mxPoint x="951" y="465" as="sourcePoint" />
            <mxPoint x="1068" y="173" as="targetPoint" />
          </mxGeometry>
        </mxCell>
        <mxCell id="fqTTrqfbZ0EkqAj8iUrX-17" value="https://icy-phoenix.github.io/j" style="text;html=1;strokeColor=none;fillColor=none;align=center;verticalAlign=middle;whiteSpace=wrap;rounded=0;fontStyle=1" parent="1" vertex="1">
          <mxGeometry x="888" y="411" width="189" height="30" as="geometry" />
        </mxCell>
        <mxCell id="fqTTrqfbZ0EkqAj8iUrX-18" value="" style="shape=image;imageAspect=0;aspect=fixed;verticalLabelPosition=bottom;verticalAlign=top;image=data:image/jpeg,/9j/4AAQSkZJRgABAQAAAQABAAD/2wCEAAoHCBYSEhUUEhUYGBIUGhkaGhwYGhgcGhkYGBocHBghHBodIS4lHB4rIxgYJjgnKz0xNTU1GiQ7QDs0Py40NTEBDAwMEA8QHRISHzYrJCs0NDQ0NDQ0NDE0NDQ0NDQ0NDQ0NDQ0NDQ0MTQ0NDQ0NDQ0MTQ0NDQ0NDQ0NDQ0MTE0NP/AABEIAOEA4QMBIgACEQEDEQH/xAAcAAEAAQUBAQAAAAAAAAAAAAAABwEDBAUGCAL/xABHEAACAQMABgYFCQUHBAMBAAABAgADBBEFBhIhMUEHUWFxgZETIjJCoVJicoKSsbLB0SMkY6LCFBczU5PS4XODs/A1Q6MV/8QAGAEBAQEBAQAAAAAAAAAAAAAAAAIDAQT/xAAiEQEBAAICAwEAAgMAAAAAAAAAAQIRAzESIUFRBBMiYXH/2gAMAwEAAhEDEQA/AJmiIgIiIFJDfSTrBUqXT26My0aOFIUkbblQWLY4gZwAeonnJknnrWw/v91n/OqfiOJNVj211Gu9M5puyN1qxU+Ym/0ZrxfW+AKxqIPdrDb/AJ/b+M5uJLSzaYtA9I9vWwtyPQP1k7VM/Xx6v1sDtM7WlVDKGUhlbeCCCCOwjjPNE22g9Y7iybNByE5o3rUz9Xke0YM7Mv1Fx/HoWJHFr0qUtkeloVA/PYKlc9hYgylTpVT3LZz3uo+4GVuJ8akmJFFbpUqn2LZB9KozfAKJg1ek68PspQX6jk/F5zyjvjUyxIS/vGv/AJdP/TH6zIo9Jt4vtJRb6jg/B48oeNTLEidOlWqPatkPdUZfvUy1d9KVwwxSoU0PWzM/w9WPKHjUuTn9La32drkVKys49xPXfPaF9nxxIb0prLdXWRWruVPuqdhPsrgHxzNQBFydmP6kPSvShVYkW1FUXk1Q7TY69kYVT4tOTvdZryscvc1e5WKL9lMAzURJ3VzGRutA6y17SulQVHZAf2iMzMrp724n2sbweIPZkGfaVQMqspyrAEHrBGQZ5ok8agXfpdG25PFVNM/9tio+AErGoyjpIiJSCIiAiIgIiICIiBSQDrtT2dJXQ/iZ+0qt+cn6QNr/AP8Aydz9JP8AxpJqsO3OxESGpERAREQERKwKRGZWBSIiAiIgIiICTB0SVtqyqL8is3kyIfvJkPyU+h1/2dyvU9M+asP6ZWPacukkxES2RERAREQEREBERAt1HCgkkAAZJPAAcSZ551hvxc3desvs1HYr9Eeqn8oEkvpU056KgtshxUr73xypg7x9Y7u4NIik5VeM+kREhoREQErKTWaWvNkbCn1j7R6h1d5nZNuW6fV7pQJlUwzdfIfrNRWu3c+sx7uA8hMeJcmmdytfQYjnPtLhxwZh4mWonUthR0rUXiQw7R+Ym1s9ILU3ey/Uefcec5qVU475y47VMrHXxMLRt76RcN7S8e0dczZGmkuyIicdJJXQ/WAa6QkbRFNgOZA2wSO7I8xI1mbojSL2tdK9P20OcZwGHvKewjdOy6rlm49HxMHRGkEuqFOunsVFDDrB5g9oOR4TOmjEiIgIiICIiAiJqtZb30FncVR7SU3K/SIwvxIgQnrhpT+1XtaoDlA2wn0E9UeBIZvrTSQBEzbERE46REQLN5cbCM3McO88JzDsSSSck8Zs9N1ssqDgoye8/wDH3zUy8Z6ZZXdIiJSSIjEBERAuUKpRgw4idRbVw6Bl58ew8xOTmdoy52HAPstuP5GTlNql06KIiQ1IiIEndEWlN1a1Y8MVEHYfVqY7M7J+sZJsgfUC6NLSVuc7nLI3cykD+bZ8pPEvHpllNVWIiUkiIgIiIFJx3SjX2dHMv+Y9NfJts/gnYyPul9/3WgvXWz5U2/WcvTs7RLERM2xERASqjJwOJ3Sk2mr9p6SsOpBtH7h8T8IG/wBCaGpPVpo9JGxvYsina2Rnfkb94HnOuOrtmeNpb/6NP/bPnVXROWqODvUBRnmW3n7h5zbuhBIIwRMM/PGt+K4ZTTQ19UbFwQ1pSGfkrsnzUjE19To50eeFJ17qj/mTOtiROTKfWt48b8cZ/dpYfJqfbP6S9T6OtHrxos30qlT+lhOtiP7Mv0/qw/Gko6pWSYAtKO75ShvxZzL41etBwtLcf9mn/tm0lQM7hxM55ZX674Yz41jaBtSMG1tyO2lT/wBs5XW3U20KI6URTJJUmnleIyN3s8jy5yTKWjDj1jg9Q/WaPXGxKUFIORtjv9lprjjnj7Y5Z8V9IarUfRsVznYOMnnjnLcv3rZqOfnN8DiWJtGFIiIGboR9m6tmHFa1I+TqZ6OnnDRK5ubcddWkPOoono+XizzViIlIIiICIiBSR70wJ+7W7chVI86bEfhkhTjelKkG0cxPFalMjvLbP3MZy9OztC0REzbEREBNvY3Zt6WUx6Sqc5PuouQN3WTteU1dNC7BV4sQB3ndNhpGjisaa+7soO4KB/zFuo7hj5ZadVqxrJXtwCzbaM2WUgcOHqkcDgd0ke6ZatJayHKkAg9an/mRIibIAHIAeUkfVBy2jyDwVnA7s7X3sZEtyllb8vHMPHLH9XYiJ5XoIiICZ2jKQyzngvD7yfKYEv39QpYV2XjsP8Rj85rxTeTDmt8dT7dOX0zrdVdyLdtimu4EAFn7SSNw7BMOprM9VFo3BBO0WVsYJ2VOQwG7gTv7O2aSavTLY2MfO/KaTLK1efDhMPUalmySTxJz5758xE0eMiIgbjVGh6TSFqv8VG+wdv8ApnoOQV0dJnSdt801D/8Ak4/OTrLjLLtWIiUkiIgIiIFJHfS7pELQo24PrVH22+igwPNmH2TJEkGdI14aukqwPs0glNe4KGP8ztJy6VjN1y8REhqREQNpq8gNwhPBQT48B8SJub/R5Fc1ceowG/lt4xjvwMzT6AP7Rvo/mJLmq9GnVtdmqobbYkhhxxuBHlOX3/irG3CzLX/UdKMnAGSdwA4knhJP0XZm2skpt7ZyW+kxyR4Dd4S/Z6AtrdvSJTAYcCzM2z3bROJbvrnbbA9kcO09cmzwxu+2t5P7spJPU9saIieV6SJz9HWAtcej2RsF9gHftZzgE8uPKdBO2aCZtGiK1CrRPvKy/aGM+cwpeta+wwPLge6Vx5eOW6y5cblj67RpXoNTdkcFWU4IPX+kwbqwasVVeQbJ5DdkeZGJMd7om3usNUQMRzBKt3EqQfAzVaw2dG2tCKaqmGU4HFjvXeTvO4neZ6Jhr3v0yv8AJ8sfHXtB8TM0rS2Kr/OO19refjmYcpiREQOs6M1zpOl2JUP8hH5ycJDPRPR2r9m5JRfzZ0A+G1Jll49Msu1YiJSSIiAiIgUkS9J2rbJVa8pKWp1Mekxv2GAChj81gBv5EHrkty26AgggEEYIPAgzlm3ZdPNEpJf1h6OKNYl7VvQVD7uM0yfo8V8N3ZI80tqpd2p/aUWKfLTLp4ld6/WAk2aaTKVo4gGJKmRY3Ho6ity4HuPGS3q/UDWyEHIGRu+kSPgRIcnQasaytZtsuC9BuKgjaU9aZ3eB49kjPHc9NOPPV9pWJJ45lJ86KuKN3TFS3qBl5gjDKepl4qZlvZsOGD/72zz3HJvOTD9Y0T6ZSOIImFfWQq7OWddnPsNs5z1+U40l2+xZUw+2EXbPvY356+/tmRNV/wDxF/zq3+of0mZZWgpAgM7ZOfXbaI7orrJiXadszcBgdZmh1i1koWeUyatf5CEYX6bcu7jO44W9M8uTGfW2qVggLM2yBxJOJxGsmtCP6qb1BzjmxHAsfdHZxnM6W0/Wuj+0bC8lXcomqm2PHrthlyb6Xbmu1Ri7cT1chylqImrIiCZ1urGote7KvUBo2/ymGHcfNQ/iO7vnZNuW6dD0PWh/eaxHqn0dNT2rtM/4kkmzC0Xo6na0ko0V2UQYA5nrJPMk7yZmy5NMrd1WIidcIiICIiAkZ9K+tV7o40DahVoODmoU2z6QH2Tncvq4I5n1uqSZMa8tErU2p1UV6bDDKwBUjtBgRV/eW1utE/2mlfmoQGSnRejVGeYbJXOcDZKgnO4yQ9A6w0bxTsbaVFAL0qqMlRNrgSp4jjvGR2yHdfNSX0TVW9sGYUFYH5TUG5ZJztKc4BPXg54zD0brC7AaRraT2b23DKlA0sComc7B2MAqx3E43bjxG450ni+0Nb1/8ahTftZFJ88ZE5i/6NbOpk0/SUj8xsr5ODu7iJv9XdP0r6itWi3ELtKfapswzssOsdfA43TcTmordiIdIdF9wm+jVp1B1NtI3ZgesD5icvpDV27t8mrb1FA4sF20He6ZUeJnoaJzxjsyrzVZXr0XD0XZHHBkOD49Y7DO70L0kOuEu02x8umAG8UPqnwxO21z0bQeyuXqU02lpOVfZXaVgpKkNjIO1iQGEce9nvEnLGLl29A6K05b3Y/YVVc4yV4OB2ofWA7cYly+sC6kU3NN+TBVYZ7VbcR3YPbPP9Ks6MGG0rLvDISCD2Ebx4SVtR9bXuaZo1Rt109lhu2weG1yBG/J6h1zLLHSpbOmh0k+nKVylBVp1BUJ2KiUx6PA4lyfYwOIPhmSFoqyejSzdVVqVANp2CqiLgb9kfJHW3w4TY0kI3scseJ5dwHITgelLTbU0S1pkg1Bt1McdgHCr3Egk/R7Y9X1o8sv1rNbNe3qlqNmxSlwNQZDv9Hmi/E9k4YmWWDHmF+Jmx1duVtrujXqDbpo2WVgGypBUkA8SM5HaBNJNOLFtavVJFJHcjiERnI8FBm3ttUr6p7FrU+uAn4ysnezuEqU1ekVNNgCpXGCD1YmRL8WflUM2nRrevjbNKmOe05Zh4KpB85v7HospjBr13c9VNVQd2W2ifhJIiPGHlWj0TqtaWmDRoKGHvNl3+02SPDEwq2u1ot09qpqVK1PJcUqbuE2cbWdkZOMgernfu47p1E8p2elq9LSDVrd9mu9Vxk71b0jnIYHipJ/OUm7ep7eutRFdGDIwBVhvBB4ES7OM6PqtdP7XbXTK1WjVFQFNy7NwNv1RyG0KnxnZwKxEQEREBERAREQMe8tErU3pVFDU6ilWU8CrDBE80aa1dbR2kXt3AZFDPTZgDtUmDBGx8oHd2FTPT0jfpgs0NO3r4/aK7UwfmupYg+NMY7z1zl6dnbgNXtNPY11rU9/J1J3OnMHt5g8jJv0Bp+he0w9F8n3lO50PUy/mNxnnyfdN2RgyMVccGUkMO4jeJMumlx29MQTIAo64XyDZF1UwPlbLHzZSZi32n7muCKtxUdTxXbIU/VXAndp8K7jpM1pV1/sdBgw2garKcj1TlUBHE5AJ7gOuRrESbdrk0Tpuj6oVv6ePeBB8SB+c5mdR0eUtq+U/J/XP9Jk3p1M8hPX+429I1+pNhB9VBn4lpNkgXWd9q9uT/Ff4MR+UnHsaqIiWOk1T1tqaPYrjbt2OWQnGDzZDyPZwPxkt6G1ptbwD0VVds8Ub1XH1Tx7xkSAIMqXSbjK9N5lC2O6eb6WkqyDCVqqjqWo4HkDPi4vKlT/ABKjuPnu7fiJnfJPgk7pC6RaNnSaja1FqXbgjKkMtIHizEbtrqXxPbB2r2imu7qlbqwVqjY2j7oALMe3AB3TGpW716hWkjO7EkKiszHfyCjM7DVrVmjd0RQpljpOpU9fcyra0kfDs43AkgYxxywG7fKZ1KPRfo56f9tqVKzV9usKa1G4utBdnPE7gSV71MkCYGiNHJa0KdvSGKdJQo7ccSe0nJPaZnw6REQEREBERAREQKSP+mAfulD/AK4/8byQJxHSvbF7AMP/AKqqOe5gyfe4nL07O0NxETNsRPpULEKoJZtwAGST1ADeTOt0P0e3dddpwtBeXpM7Z+oN4+tg9k7py2RyETL0nYtbVqlB8F6bFSRwOOBHYRg+MxIdJIXRVRBqVG5rn4hQPxNI9nfdE9b9vXTrphh4MAfvEnLoSjIA0+f3y5/61X8bSfxPPml2zc3B66tU+btJwGIBMzSeia9q2zcUnQ8iw9U/RYeq3gZgscDI4ielnppUTDKGRhvDAEEHrB3GaybTllp5qiTRpfo7tK2TSBoP/D3p40zux3YnA6a1Cu7bLKvpqY96kCWHfT9ryzFlhMpXKyoxz4c+7nDDBIIwRuIPEHtHIyh4SVKUdKmyrVDoxmSnUpqjNUVWfaG9iuR6oz1/pid9RtDUrWzpNTXFSulOpVZiS7uyhmLMd53scDlmeeqNu1R0pr7dRlpr9J2Cj4mepbekERVHBVCjuUYH3TSMbNL0RE64REQEREBERAREQEsXNulVGR1DIwIZSMgg8QRL8QODvOjC1ds03rUx8kMrKO7bUt8Z82/RbbKQXq1nA5ZpqD34TPkRO9ic1Hd1q9E6At7QYt6SoeBbi5Ha7ZY+c2sROuIC17OdJ3X01+FNB+U0E3WuLZ0hdH+Kw8t35TSzNtOidV0bV9jSKL/mJUT+Xb/onKzb6p1ti/tm/iov2zsf1Sb06niedrt9qo7fKdz5sTPRDcD3GecQc7+uTiBE9E6u3HpbS3fm9Kmx7ygz8czztJx6N7r0mjaIzvpl0P1WOz/KVm2KM+nVxESmbVaU0Db3X+PRRzw2iMOB2OMMPOcxddGFqxylStT7AysP5lLfGd3Kzmo7LY4rQPR3bWldbgNVqVUyU2yuwrEEbQVVGTgniT5ztYidcIiICIiAiIgIiICIiBSImj0jrAqEqg22G4ngoPfz8POTllMZuuyW9N5LNa5RPbYL3kD75xVzpatU4uQOpfVHw3nxmCZhf5E+Rc4/121XTlBffz3Bj8cYmFca1UUVmKvsqCSSABgcec5acDrtrRUp1HtqahVAG2zDJcMAcL1Ljdnj3YnMOXPO6jtxkntZ01ei4ua1ZV2VquzgHiATuz2zBnzo4vcY2Kbk9iMR9oDEv1qD0zh0ZT84EffNVT/S1LdxUKoxUkMoJBBwQQNxB5HMuTGu6bVSlCmM1KpAA6gN5J6h+hnY5fUdpo3TVw2gais7MxSqdpixfAc++TncAR4Tk0OQD1iSNZaPSnbrb8UVNg/OyMMfEknxkfV7NqDmi/tJuB+UnuMO8DzBHKZ4Z+VprS3O+6OdPNQp1aIVWG2HGc+8Apx9lfOcDNvqvUK3SAcHDKe7GfvAncrZjbHdb7S8mtB50h4N/wAS9T1nT3kYdxU/pOWieec2c+nhi7KnrDQPFivep/LMzKOkKT+zUUnqyAfI75wMS5/Iv2OXjiScxI9t7t6fsMy9gO7y4Tc2WsjDAqgEfKXcfFefhia48+N79IuFjqolmhWWooZDlTwIl6boIiICIiAiIgIiIHyROE0hox6JO0CUzuYcCO3qM7yUIzM+TjmcVjlpG8TtrnQtF9+zsnrU4+HCayvqx/lv4MPzH6TzZcGU6aTOOclGQHiAe8TbVNX668FVvosP6sTEfRtZeNJvBSfumdwznxW5WLMfSCM1KoqBS5RtgNgrt4OznPLOJmNRZfaVh3gj75azJ9yuo0sdV79zhytNebOUY+S5z4zt9CaCp2q5XLVWGHqN7Tdg+SvDcOrnNrmJpny5ZekzGQmBpfRNO6TZcEMudl1OHQnqPMcMg7jiZ8TOWy7itbRvpDVW9pk+idaqciNhW8Q35EzsdXNHmlQT0qKtwV9cjBPE4ye7GQN2Zt8ymZply5ZTVTMdKxKopPAE9wzL6WVU8Kbn6rY88TPVUx4myp6Ert7mO8qPzzMyhqy59t1UfNyx+OJc4878cueMaGfdCgztsopZuof+7p1lvq7SX2tpj2nA8hibWjQVBhFCjqAAmmP8e3tF5J8YehrI0aQVj6xJY44DPKbGInrk1NM7dqxETrhERAREQEREBERASkRAGIiSKTDvoiZZqjQXs1FaInlybfFmfSREhTY2s3tjyiJrgjLpt1lYierHpiSsRNHFYiJ0IiICIiAiIgf/2Q==;" parent="1" vertex="1">
          <mxGeometry x="535.5" y="389" width="167" height="167" as="geometry" />
        </mxCell>
        <mxCell id="fqTTrqfbZ0EkqAj8iUrX-19" value="" style="shape=image;imageAspect=0;aspect=fixed;verticalLabelPosition=bottom;verticalAlign=top;image=data:image/png,iVBORw0KGgoAAAANSUhEUgAAAOAAAADhCAMAAADmr0l2AAABMlBMVEX///8kKS4BhL4BgbwBndokqfIBidIBjdQBm9kmrvMBoNsos/Qru/UptvQsvfUBhr8BkdUhofEjpvIBldcmrfMBbq8BhNABfbknsfMBk9YBitIaICYBkMYhoPEPFx4Bi8IACxUBgM4XHSMBa60AAAABcrIBk8jd3t4AAA3Gx8j09PQAChQBpd3AwcKSk5aDhYeZmpzo6emc1Piur7AtMjc4PEChoqR9f4FvcXRMT1NaXWDP0NHg4eFdYGO2t7k+QkZMyPfq9/wAY6quyeBtrd8Ad8sXkuKt4vjM8P5tveCR3Ps+ptHD4vAfruOj0edrz/hks9eQxuF4yepJuOS44fOOwd223vKq3v1Al8fd7PVepM2Vv9p0veY7ir5Tr+DG2+p8q88AWqVWo9uZxOd9wfYAle9RzUO6AAAPW0lEQVR4nO2di1/ayBbHg49qqRUftVRjx4hiQhAi8gaBYq/tPtR93Lvd2m2ru23//3/h5gXkMY+TMEnofvhVIxYD+TIz55yZOTMRhLnmmmuuueaaa665aFLlQr9aLZe1ZqvV1LRyo9ovyGrSV8VBaqXU0Hp1dKxIEkIol8uJon7QH0qScozqPa1RuPheQeW+1qnpXDkxRZSY00lrHa0vJ321ASVXezUk0dDcmFKu1qteJH3VQKmlZkpBQDYHJVJyzdLMV1e139KLIyjcSDlJbPVnmbHUSkmBi85TkFKqVUqaA6+Lcm5auhGjqM2e0Sn1jhEPOks5pTNbxdgY8Cm8iURpUJ2V1qie1YIbTQAiSp3NAqJ6JnGsm24hKXFEtZGKDM9ETDUS5evXIsUzEev9xPDkdjFqPEPFdjJOQ9WOIzAtOInHWgJNsRR97ZwI1eN2i2pPig/PkNSKtRBLYuiAOqxyKMZCbMZiXLwqNmPCkwcxtj6n0CAWc1rlHXbCJUrV6PmaSlJ4hiKvpmonoeo5EupEak3lWuzW0ysxFWFDLBwnjWdIicxfVGN27iRJEYXfZzPCp5uasyj4yomaT7eUMn8+LZHohaSixp1vZuqnJYkz4azx8SacpfY3Es92ODv20ymJmy3tzyQfP384G/ELTscFHnxy4uEnWYhDXKrWE+v+sSXWp+9bdGa4AFOpXGdaPi3h/h9L07rD/gw6QLeUqUzpBa39iRIjSYSHzEQT6vyVOE12RpuW49IqlUr9cq+OopgdNN8BoVpHq5YKpSrtr9rh+agNUKnYfyVXWyiCkTYktc+6IyPZpJg6FDpm69J6SKLTflWqbYWrtRWl1JnTx3VptkDphuNTqZeAPEOUcjPHzeCKqO0Zd1EHtL+vhfOGTeoFo4r37ytlPrO9otTzF4lGqyAolK/oUq8W27Qr5fBZTmMVMXh6QEwN+KUwQSk9RMvhP7RKUyGdJopmKmXOzKkUSX+FavhrrVCvRqwH5yvTq5tEGpyUPTOHom7siyhVG7Q7rVazqZWbzWar1x7Ua6LfjebIOQcDKmFwS1ph9JFy5Dh+nJmgO2lFbLfK1a5c8ZsB9UIuNZq9uo5pX7uoNH0Neyyao9BVJJ+JV4/h2GqUc1VN0cutqAy0KjtvWa0UGi3RyL9EdVpLqtJrVK4VjK/AsIeM8KFbdzhpiC76rRTdFNKtTGA7Q4vRTMCAH9j0umCE/cEiNuYoDMGIRinWwEkxSLeixnixFIo/w4rZcaOZBY8azGE0FH9+FTNKCjDIxizAJACZ15QCe3uGRZ5ZQPBFsUxoMoDsT10cwF6pBBjITsDIAIafi7DJ7Q6gdx6/m1ABgCJoEFGGDKTF7+hBl6VABqAYUa0NCKzu/MQK1UxBIlIVOJUUd4pqAzRagNiXBfAR5ivFnWbM6t7Yl8VOZgP4CPOV4jaj7ODDEDvkloHjRmIvDqqJ6CNEjg+eVbMYIxUOBe1CTyfodTHHLuhDHw5NN+kRWNDrYpl3kLcxP6mYHWEX/MHT6yi0Jkwz4xFO0Ik8Rh2F2aoQg1jTCzoVS+33sgY+xnxJLF8EOjBqHYV6+bgS/F2SgR6a5ushHQlDyazqOwN9/LQuBX3CbKw4kvuxAma0kD/+LijQjr8nMVIBZCIk8nworA4oXBKoQgnUhBA5SQ8UscfvAicCFSE5TFbrgNPJE2dxCOQqiDPaF6AmOEhyYTTIj0mkgQvQ2eGTNngIZOeJnhAUiMbelXcLMmJELAOQjUnMR1iCjD0RrQwk0s4lWkMFwCSTIfypKuTcUAkbPAVxhcd4O0jN3BqfGzOPT5BgpIiPZfqAU5ML00aCNELC1BBkaDWBqWuPIAPThDFNkAVOdnMQARZuEWZOIGFQonGaJYCVIYTLEC/BGLOKQy1AOeDHZSCzSkrSO/TAWlIOd6IKCdRyyQOWIaYCd5kVCKCYPCDEEfqzdQXgtEvI5GGegngzbI8ANH/zvQDiQhnQiNP3DAiaBP9O2iC2S/C9AEKsaHhAKXlAe4GBvagJv3YqPKAS/6ySV6ajR1Jba/QL/YbWxq3cmgJwJkI1JDYmH3SlUVO8jFNU0aQ79ILQ0/E8/yWX68jVMrGj9yBAQB5K1Kq3cc2kqw2KE0ZssA1y9DPQHyTNTapdbbQHL375OQgw+R49VaWWYVoJq4NAsSgsYTFBqYUSafYM1JtIibFeLleB+oOkIcfvQqClf4QhxyQ0fPv27Q9BTgDlyMyAn7D149LJyenNq5/uwGeA5ofjz2XGa/jz/ompm3UwIyiXOcgCmgh1d2LznZys63r1dgg4CZg0nHw0KgjXBydj3ayvAxlhG/8kH8sIwq2Db98G1PULgxE0uxR7qi9Gvx3sYwHX19Z/+R/lPND8IGFILk79mtl3ygFolSPZdcByKRN2FMOfD/apgOtrP5HOhWXuJ5kIpPOdePgOfIDra78QToYM56TC743BQ9f7Hj4c4PoaoSUC909L0Ne/y3j59g9O/YDrr/CnV4CrehLIZ7b0m86nE5qQB+b3AR5wHX8+LFdN7/UmkvCrR58LBxidrq+t2U7CfqA/JLwCZG7RUDLRzM9YPgPQIFtbsw/mT8JLwIK14Psq8NDwJIPlOzhds4rPOLAAoQuEEsi6vyPxZU7XMCK9DJAPtE4voN7++Dul93qdIfAFBIS5+ggq6fAmfZpe+o309G02c2ARZkZf4QCB6yZSvDPvDT5d6R/xT/+xmDHZMmO+zKhEM1jAp6Q3Ym2T4yTkGM8Mb04tpf+Le/rXxQxFgQDhq+t4+oq70/TpiPDG36V7T+ULCAhfH5nitkTyh/SYTyc89Qyw3O0vUPkW0oEAwesHdYk1LmWo87nlipTvM3Q+A/Dp2lP9a838aX4/JQNCl3hZhCIHwmuj/CwTkzZLML10O3n2NrvAUtpCcov8frDFLyMdT73O9XrJW4Dp9Orvo2f/wPBlvIAYPgpgwC2Lp91z/t2qny+dXrLdxa/s8ltYDAgYqI6mpr2Tzlssn05ouov3AL6F7E1AwKC7hk9zYzJ8+ZmEp8PhQXaRreztnxi+J7R3DbzDJKqFjWpIeCbhvs23MPpaNCqk/VA/GL9kM9fC+ZOAgNiNLnNIKk726PNKqodCvNumEKaXMsziy7/Xw4LAgJiFyqKo9QvdbulsgAjli8Sz4G5/uL1kKW18p5dMg2r+YolRR7P5B+NVAgNiuhS18cXL5RTBzCKlFfhGzzerS1StjlkcP7P2L9ms5S+DA/rySVwjoZUWKdgRpVqrH6gc79JMQmIhZg/smO78xRO/6O/r8xTu9J8SedtpEYmDcoCCHPoJV63vVV3Go6xeYFmM8h9GrxEC0O8pkGvJ4UWNeot5SUm1GiXMjqJ4Qr+WzH/2QyxeNv/X+CVwgC8Yb+sfPhRdgzBqmxHviEgytk5tsfeQGp5aHPYXRgsYvMX7ySuEAez7J9KkprNEKpAV7eIx5J4lw5ttLBeF0PQONMAXLEDcinzkWvEESaqBbg79mUWY8fA9uE4/f/xirCejB6z3xCbmuW6Tw07dg89CMQl3nXjZ1+6zzx8Hr6KEjAvFWeWYff8AGTWfdxmE2xO+T96UCmcJjvSY+Zb4IWDFGZExhm8CDSx+hBLufPCdGw6QkFPiHEpjTOmDduGbEG74kFa3zaP927ZeN7N5h3eYFhC/DlF0rpugbtETNFfh4zZdq6s6XvYec2ZIQMI2uK6KR6ukQW/69NcKg1Avw/fYLJGwgISuvXO3sUqKQhgs8H44yi+yAHfPsaeeP3vs0zPIexKmmpyVVCbuyR+whn7YyefZhCsfuQISHIHLfcuke9pQ9nTxa/jJ4NObmFVQjuP4ofXrxmeugIQ25hqyvyDcNjrIzMVd1uIzCHe9pTYG1qUTnvqb4RSA+GFuj4PTcJ0nMcACkvsRnkG4a6HsWjy7xj/z0Yh1Y9uXOokBfAYEJNx30HPx3Y7nfjYiUjrwGeDXR/m8k5Chjd1rL+DyM7+g74698ZkvT6bbVBRk3gZEzKHicbsRoFv/4OLTtbuB0a7j0cqt+xWmAqxgGxgmT6ZbbXba7XavWQ02bfjBy5fPb+waOLv20frNhrQePnJPBOMAl8EXgL3fEbeUUfXTkd0Ad3byO8bBJGTpkctdTAconOEIOdz1z9So/HacJbjDJtxzuospAYUWxg9wKsLh5Q5WI8IVMuHqxF2YgMsW5fKz5cCAKi5ky3GZ3L0jAO7srBhw+sGU/cP6aR3058buYtoSxBoaTjmjRMCdPUrx2aX7bgyIUaDLkDGpF3zuY/xAIjza2Vth6fktL0DsLXz43G374fJI18744NDqIyahZUzPt/x8WwGvA3eDBolLTqVehmMkJ+LOvfD5OYyQB6DQwNRS1OaRZPHw95Ffl+bIEoDwH16AwhlmAEaUws/tTvTXpZ/vwXrqI5Pw0e6QE6BQxsXdSNGmL8XXHsLLy/HA58fneww92rjjBCg08H0nqV0ueJ1iRS4FWY3+2lVLL/OODtGX54/2Hhnas38YX/pj86f9H1+3tpa3xrIfhgDEtsOUOc+SqneaZ9V+qdSvNrRWu55Cx4E2CHQS/v3J9dSXQ2YZbm5hFAZQKJGHCfVuEkKSpB9y5jBNwB0Q7y8vR9XTO/CplyFD/ACFEjhJKOgWjzbh5ZF/4PMdixAHuBkOUJChtxQOvIelTnh5+XcWN/D57pCOyBNQqLRhWTTBN+m807tOmHF5ACFXQL33BFpkyHcX0vvnNELOgAR3ESmgcPecojecAYWCyLY1vPeRpRFyBxTUHnN2l/tGuXd7h2TATb2WbpoHPoDGeCnDmvLfCZhMaAB69XLat5PrjJvG8t+VZbhCIIwEUBA0aiFGsu3MNp7wjZ+PB6DQbVNaYiSAKpbwMCpAYzEe0ZxGtHHQhPAw+hLUpbZIty6Pamekf64Odel4hxNFCKgbmza+KUa2CPY/V4devXm5afwzDubR4ANPvrBVGOCaYnQLtf2Eb176hZ/ND6l+yl+KEa5E9xG6ADfNY8juIFH9gRcxyqX2XkJ/CW7BNwmCqtBxW9RI77rx5YoG+G3zayTvKmvIUYzHka5DdxO6Ab/+CdkbKJTU6kCys0qkiPeccRGOAb99e/xntO8ryOWBhJAU/U4Jr6+8gN9ePjuPrOyckquNUgxbXby7GiFevTHKbvmcv2FJVvdXBqJx+PZt619HZ+jeoLu60o3mv5HO0PDLP1vLX71pQXPNNddcc80111xzzTUz+j/np+9ZKaNvIwAAAABJRU5ErkJggg==;" parent="1" vertex="1">
          <mxGeometry x="252" y="16" width="120.46" height="121" as="geometry" />
        </mxCell>
        <mxCell id="fqTTrqfbZ0EkqAj8iUrX-20" value="edit&lt;br&gt;source&lt;br&gt;code" style="text;html=1;strokeColor=none;fillColor=none;align=center;verticalAlign=middle;whiteSpace=wrap;rounded=0;" parent="1" vertex="1">
          <mxGeometry x="196" y="117" width="48" height="55" as="geometry" />
        </mxCell>
        <mxCell id="fqTTrqfbZ0EkqAj8iUrX-21" value="publish code modification" style="text;html=1;strokeColor=none;fillColor=none;align=center;verticalAlign=middle;whiteSpace=wrap;rounded=0;" parent="1" vertex="1">
          <mxGeometry x="321" y="227" width="76" height="39" as="geometry" />
        </mxCell>
        <mxCell id="fqTTrqfbZ0EkqAj8iUrX-22" value="listen for code changes" style="text;html=1;strokeColor=none;fillColor=none;align=center;verticalAlign=middle;whiteSpace=wrap;rounded=0;" parent="1" vertex="1">
          <mxGeometry x="451" y="306" width="84" height="30" as="geometry" />
        </mxCell>
        <mxCell id="fqTTrqfbZ0EkqAj8iUrX-23" value="publish new site version" style="text;html=1;strokeColor=none;fillColor=none;align=center;verticalAlign=middle;whiteSpace=wrap;rounded=0;" parent="1" vertex="1">
          <mxGeometry x="708" y="359" width="85" height="39" as="geometry" />
        </mxCell>
        <mxCell id="ECEo4WKRQnGw2qY5rWRb-1" value="Jekyll : transform markdown filest to html files" style="text;html=1;strokeColor=none;fillColor=none;align=center;verticalAlign=middle;whiteSpace=wrap;rounded=0;" vertex="1" parent="1">
          <mxGeometry x="554" y="267" width="277" height="39" as="geometry" />
        </mxCell>
      </root>
    </mxGraphModel>
  </diagram>
</mxfile>
